%TF.GenerationSoftware,KiCad,Pcbnew,7.0.1*%
%TF.CreationDate,2023-12-01T14:10:48+08:00*%
%TF.ProjectId,USB-PD-Bench-Supply-PCB,5553422d-5044-42d4-9265-6e63682d5375,1*%
%TF.SameCoordinates,PX68e7780PY3938700*%
%TF.FileFunction,Soldermask,Bot*%
%TF.FilePolarity,Negative*%
%FSLAX46Y46*%
G04 Gerber Fmt 4.6, Leading zero omitted, Abs format (unit mm)*
G04 Created by KiCad (PCBNEW 7.0.1) date 2023-12-01 14:10:48*
%MOMM*%
%LPD*%
G01*
G04 APERTURE LIST*
%ADD10C,2.600000*%
%ADD11C,2.400000*%
%ADD12R,1.700000X1.700000*%
%ADD13O,1.700000X1.700000*%
%ADD14R,2.000000X2.000000*%
%ADD15C,2.000000*%
%ADD16R,3.200000X2.000000*%
G04 APERTURE END LIST*
D10*
%TO.C,J4*%
X28000000Y-9800000D03*
%TD*%
D11*
%TO.C,J5*%
X28000000Y-14200000D03*
%TD*%
%TO.C,J3*%
X8000000Y-14200000D03*
%TD*%
D10*
%TO.C,J2*%
X8000000Y-9800000D03*
%TD*%
D12*
%TO.C,J1*%
X32000000Y-20580000D03*
D13*
X32000000Y-18040000D03*
X32000000Y-15500000D03*
X32000000Y-12960000D03*
%TD*%
D14*
%TO.C,SW1*%
X35350000Y-14300000D03*
D15*
X35350000Y-19300000D03*
X35350000Y-16800000D03*
D16*
X42850000Y-11200000D03*
X42850000Y-22400000D03*
D15*
X49850000Y-19300000D03*
X49850000Y-14300000D03*
%TD*%
D12*
%TO.C,U6*%
X1351000Y-43500000D03*
D13*
X3891000Y-43500000D03*
X6431000Y-43500000D03*
X8971000Y-43500000D03*
X11511000Y-43500000D03*
X14051000Y-43500000D03*
X16591000Y-43500000D03*
X19131000Y-43500000D03*
X21671000Y-43500000D03*
X24211000Y-43500000D03*
X26751000Y-43500000D03*
X29291000Y-43500000D03*
X31831000Y-43500000D03*
X34371000Y-43500000D03*
X36911000Y-43500000D03*
X39451000Y-43500000D03*
X41991000Y-43500000D03*
X44531000Y-43500000D03*
X47071000Y-43500000D03*
X49611000Y-43500000D03*
X49611000Y-25720000D03*
X47071000Y-25720000D03*
X44531000Y-25720000D03*
X41991000Y-25720000D03*
X39451000Y-25720000D03*
X36911000Y-25720000D03*
X34371000Y-25720000D03*
X31831000Y-25720000D03*
X29291000Y-25720000D03*
X26751000Y-25720000D03*
X24211000Y-25720000D03*
X21671000Y-25720000D03*
X19131000Y-25720000D03*
X16591000Y-25720000D03*
X14051000Y-25720000D03*
X11511000Y-25720000D03*
X8971000Y-25720000D03*
X6431000Y-25720000D03*
X3891000Y-25720000D03*
X1351000Y-25720000D03*
%TD*%
M02*
