M48
; DRILL file {KiCad 7.0.1} date Fri Dec  1 14:10:53 2023
; FORMAT={-:-/ absolute / inch / decimal}
; #@! TF.CreationDate,2023-12-01T14:10:53+08:00
; #@! TF.GenerationSoftware,Kicad,Pcbnew,7.0.1
; #@! TF.FileFunction,Plated,1,2,PTH
FMAT,2
INCH
; #@! TA.AperFunction,Plated,PTH,ComponentDrill
T1C0.0394
; #@! TA.AperFunction,Plated,PTH,ComponentDrill
T2C0.0472
; #@! TA.AperFunction,Plated,PTH,ComponentDrill
T3C0.0512
; #@! TA.AperFunction,Plated,PTH,ComponentDrill
T4C0.0591
%
G90
G05
T1
X0.0532Y-1.0126
X0.0532Y-1.7126
X0.1532Y-1.0126
X0.1532Y-1.7126
X0.2532Y-1.0126
X0.2532Y-1.7126
X0.3532Y-1.0126
X0.3532Y-1.7126
X0.4532Y-1.0126
X0.4532Y-1.7126
X0.5532Y-1.0126
X0.5532Y-1.7126
X0.6532Y-1.0126
X0.6532Y-1.7126
X0.7532Y-1.0126
X0.7532Y-1.7126
X0.8532Y-1.0126
X0.8532Y-1.7126
X0.9532Y-1.0126
X0.9532Y-1.7126
X1.0532Y-1.0126
X1.0532Y-1.7126
X1.1532Y-1.0126
X1.1532Y-1.7126
X1.2532Y-1.0126
X1.2532Y-1.7126
X1.2598Y-0.5102
X1.2598Y-0.6102
X1.2598Y-0.7102
X1.2598Y-0.8102
X1.3532Y-1.0126
X1.3532Y-1.7126
X1.3917Y-0.563
X1.3917Y-0.6614
X1.3917Y-0.7598
X1.4532Y-1.0126
X1.4532Y-1.7126
X1.5532Y-1.0126
X1.5532Y-1.7126
X1.6532Y-1.0126
X1.6532Y-1.7126
X1.7532Y-1.0126
X1.7532Y-1.7126
X1.8532Y-1.0126
X1.8532Y-1.7126
X1.9532Y-1.0126
X1.9532Y-1.7126
X1.9626Y-0.563
X1.9626Y-0.7598
T2
X0.315Y-0.5591
X1.1024Y-0.5591
T3
X0.315Y-0.3858
X1.1024Y-0.3858
T4
G00X1.6614Y-0.4409
M15
G01X1.7126Y-0.4409
M16
G05
G00X1.6614Y-0.8819
M15
G01X1.7126Y-0.8819
M16
G05
T0
M30
