%TF.GenerationSoftware,KiCad,Pcbnew,7.0.1*%
%TF.CreationDate,2023-12-01T14:10:48+08:00*%
%TF.ProjectId,USB-PD-Bench-Supply-PCB,5553422d-5044-42d4-9265-6e63682d5375,1*%
%TF.SameCoordinates,PX68e7780PY3938700*%
%TF.FileFunction,Legend,Top*%
%TF.FilePolarity,Positive*%
%FSLAX46Y46*%
G04 Gerber Fmt 4.6, Leading zero omitted, Abs format (unit mm)*
G04 Created by KiCad (PCBNEW 7.0.1) date 2023-12-01 14:10:48*
%MOMM*%
%LPD*%
G01*
G04 APERTURE LIST*
%ADD10C,0.150000*%
%ADD11C,0.400000*%
%ADD12C,0.100000*%
%ADD13C,0.120000*%
G04 APERTURE END LIST*
D10*
X26000000Y-14000000D02*
X25500000Y-14000000D01*
X30500000Y-14000000D02*
X30000000Y-14000000D01*
X10500000Y-14000000D02*
X10000000Y-14000000D01*
X6000000Y-14000000D02*
X5500000Y-14000000D01*
D11*
X26552380Y-18386666D02*
X29600000Y-18386666D01*
X6452380Y-18386666D02*
X9500000Y-18386666D01*
X7976190Y-19910476D02*
X7976190Y-16862857D01*
D10*
X5500000Y-14000000D02*
X5500000Y-5000000D01*
X10500000Y-5000000D02*
X10500000Y-14000000D01*
X8000000Y-5000000D02*
X10500000Y-5000000D01*
X25500000Y-14000000D02*
X25500000Y-5000000D01*
X30500000Y-5000000D02*
X30500000Y-14000000D01*
X28000000Y-5000000D02*
X30500000Y-5000000D01*
X36000000Y-5000000D02*
X100000Y-5000000D01*
X36000000Y-100000D02*
X36000000Y-5000000D01*
%TO.C,J1*%
X31666666Y-22812619D02*
X31666666Y-23526904D01*
X31666666Y-23526904D02*
X31619047Y-23669761D01*
X31619047Y-23669761D02*
X31523809Y-23765000D01*
X31523809Y-23765000D02*
X31380952Y-23812619D01*
X31380952Y-23812619D02*
X31285714Y-23812619D01*
X32666666Y-23812619D02*
X32095238Y-23812619D01*
X32380952Y-23812619D02*
X32380952Y-22812619D01*
X32380952Y-22812619D02*
X32285714Y-22955476D01*
X32285714Y-22955476D02*
X32190476Y-23050714D01*
X32190476Y-23050714D02*
X32095238Y-23098333D01*
%TO.C,SW1*%
X36816667Y-10015000D02*
X36959524Y-10062619D01*
X36959524Y-10062619D02*
X37197619Y-10062619D01*
X37197619Y-10062619D02*
X37292857Y-10015000D01*
X37292857Y-10015000D02*
X37340476Y-9967380D01*
X37340476Y-9967380D02*
X37388095Y-9872142D01*
X37388095Y-9872142D02*
X37388095Y-9776904D01*
X37388095Y-9776904D02*
X37340476Y-9681666D01*
X37340476Y-9681666D02*
X37292857Y-9634047D01*
X37292857Y-9634047D02*
X37197619Y-9586428D01*
X37197619Y-9586428D02*
X37007143Y-9538809D01*
X37007143Y-9538809D02*
X36911905Y-9491190D01*
X36911905Y-9491190D02*
X36864286Y-9443571D01*
X36864286Y-9443571D02*
X36816667Y-9348333D01*
X36816667Y-9348333D02*
X36816667Y-9253095D01*
X36816667Y-9253095D02*
X36864286Y-9157857D01*
X36864286Y-9157857D02*
X36911905Y-9110238D01*
X36911905Y-9110238D02*
X37007143Y-9062619D01*
X37007143Y-9062619D02*
X37245238Y-9062619D01*
X37245238Y-9062619D02*
X37388095Y-9110238D01*
X37721429Y-9062619D02*
X37959524Y-10062619D01*
X37959524Y-10062619D02*
X38150000Y-9348333D01*
X38150000Y-9348333D02*
X38340476Y-10062619D01*
X38340476Y-10062619D02*
X38578572Y-9062619D01*
X39483333Y-10062619D02*
X38911905Y-10062619D01*
X39197619Y-10062619D02*
X39197619Y-9062619D01*
X39197619Y-9062619D02*
X39102381Y-9205476D01*
X39102381Y-9205476D02*
X39007143Y-9300714D01*
X39007143Y-9300714D02*
X38911905Y-9348333D01*
D12*
%TO.C,U6*%
X2089095Y-41062619D02*
X2089095Y-41872142D01*
X2089095Y-41872142D02*
X2136714Y-41967380D01*
X2136714Y-41967380D02*
X2184333Y-42015000D01*
X2184333Y-42015000D02*
X2279571Y-42062619D01*
X2279571Y-42062619D02*
X2470047Y-42062619D01*
X2470047Y-42062619D02*
X2565285Y-42015000D01*
X2565285Y-42015000D02*
X2612904Y-41967380D01*
X2612904Y-41967380D02*
X2660523Y-41872142D01*
X2660523Y-41872142D02*
X2660523Y-41062619D01*
X3565285Y-41062619D02*
X3374809Y-41062619D01*
X3374809Y-41062619D02*
X3279571Y-41110238D01*
X3279571Y-41110238D02*
X3231952Y-41157857D01*
X3231952Y-41157857D02*
X3136714Y-41300714D01*
X3136714Y-41300714D02*
X3089095Y-41491190D01*
X3089095Y-41491190D02*
X3089095Y-41872142D01*
X3089095Y-41872142D02*
X3136714Y-41967380D01*
X3136714Y-41967380D02*
X3184333Y-42015000D01*
X3184333Y-42015000D02*
X3279571Y-42062619D01*
X3279571Y-42062619D02*
X3470047Y-42062619D01*
X3470047Y-42062619D02*
X3565285Y-42015000D01*
X3565285Y-42015000D02*
X3612904Y-41967380D01*
X3612904Y-41967380D02*
X3660523Y-41872142D01*
X3660523Y-41872142D02*
X3660523Y-41634047D01*
X3660523Y-41634047D02*
X3612904Y-41538809D01*
X3612904Y-41538809D02*
X3565285Y-41491190D01*
X3565285Y-41491190D02*
X3470047Y-41443571D01*
X3470047Y-41443571D02*
X3279571Y-41443571D01*
X3279571Y-41443571D02*
X3184333Y-41491190D01*
X3184333Y-41491190D02*
X3136714Y-41538809D01*
X3136714Y-41538809D02*
X3089095Y-41634047D01*
X38991000Y-40152619D02*
X38991000Y-39152619D01*
X38991000Y-39152619D02*
X39371952Y-39152619D01*
X39371952Y-39152619D02*
X39467190Y-39200238D01*
X39467190Y-39200238D02*
X39514809Y-39247857D01*
X39514809Y-39247857D02*
X39562428Y-39343095D01*
X39562428Y-39343095D02*
X39562428Y-39485952D01*
X39562428Y-39485952D02*
X39514809Y-39581190D01*
X39514809Y-39581190D02*
X39467190Y-39628809D01*
X39467190Y-39628809D02*
X39371952Y-39676428D01*
X39371952Y-39676428D02*
X38991000Y-39676428D01*
X39991000Y-40152619D02*
X39991000Y-39485952D01*
X39991000Y-39152619D02*
X39943381Y-39200238D01*
X39943381Y-39200238D02*
X39991000Y-39247857D01*
X39991000Y-39247857D02*
X40038619Y-39200238D01*
X40038619Y-39200238D02*
X39991000Y-39152619D01*
X39991000Y-39152619D02*
X39991000Y-39247857D01*
X40895761Y-40105000D02*
X40800523Y-40152619D01*
X40800523Y-40152619D02*
X40610047Y-40152619D01*
X40610047Y-40152619D02*
X40514809Y-40105000D01*
X40514809Y-40105000D02*
X40467190Y-40057380D01*
X40467190Y-40057380D02*
X40419571Y-39962142D01*
X40419571Y-39962142D02*
X40419571Y-39676428D01*
X40419571Y-39676428D02*
X40467190Y-39581190D01*
X40467190Y-39581190D02*
X40514809Y-39533571D01*
X40514809Y-39533571D02*
X40610047Y-39485952D01*
X40610047Y-39485952D02*
X40800523Y-39485952D01*
X40800523Y-39485952D02*
X40895761Y-39533571D01*
X41467190Y-40152619D02*
X41371952Y-40105000D01*
X41371952Y-40105000D02*
X41324333Y-40057380D01*
X41324333Y-40057380D02*
X41276714Y-39962142D01*
X41276714Y-39962142D02*
X41276714Y-39676428D01*
X41276714Y-39676428D02*
X41324333Y-39581190D01*
X41324333Y-39581190D02*
X41371952Y-39533571D01*
X41371952Y-39533571D02*
X41467190Y-39485952D01*
X41467190Y-39485952D02*
X41610047Y-39485952D01*
X41610047Y-39485952D02*
X41705285Y-39533571D01*
X41705285Y-39533571D02*
X41752904Y-39581190D01*
X41752904Y-39581190D02*
X41800523Y-39676428D01*
X41800523Y-39676428D02*
X41800523Y-39962142D01*
X41800523Y-39962142D02*
X41752904Y-40057380D01*
X41752904Y-40057380D02*
X41705285Y-40105000D01*
X41705285Y-40105000D02*
X41610047Y-40152619D01*
X41610047Y-40152619D02*
X41467190Y-40152619D01*
X42229095Y-39771666D02*
X42991000Y-39771666D01*
X43467190Y-40152619D02*
X43467190Y-39152619D01*
X43467190Y-39152619D02*
X43848142Y-39152619D01*
X43848142Y-39152619D02*
X43943380Y-39200238D01*
X43943380Y-39200238D02*
X43990999Y-39247857D01*
X43990999Y-39247857D02*
X44038618Y-39343095D01*
X44038618Y-39343095D02*
X44038618Y-39485952D01*
X44038618Y-39485952D02*
X43990999Y-39581190D01*
X43990999Y-39581190D02*
X43943380Y-39628809D01*
X43943380Y-39628809D02*
X43848142Y-39676428D01*
X43848142Y-39676428D02*
X43467190Y-39676428D01*
X44467190Y-40152619D02*
X44467190Y-39152619D01*
X44467190Y-39152619D02*
X44705285Y-39152619D01*
X44705285Y-39152619D02*
X44848142Y-39200238D01*
X44848142Y-39200238D02*
X44943380Y-39295476D01*
X44943380Y-39295476D02*
X44990999Y-39390714D01*
X44990999Y-39390714D02*
X45038618Y-39581190D01*
X45038618Y-39581190D02*
X45038618Y-39724047D01*
X45038618Y-39724047D02*
X44990999Y-39914523D01*
X44990999Y-39914523D02*
X44943380Y-40009761D01*
X44943380Y-40009761D02*
X44848142Y-40105000D01*
X44848142Y-40105000D02*
X44705285Y-40152619D01*
X44705285Y-40152619D02*
X44467190Y-40152619D01*
D10*
X813619Y-35617904D02*
X1623142Y-35617904D01*
X1623142Y-35617904D02*
X1718380Y-35570285D01*
X1718380Y-35570285D02*
X1766000Y-35522666D01*
X1766000Y-35522666D02*
X1813619Y-35427428D01*
X1813619Y-35427428D02*
X1813619Y-35236952D01*
X1813619Y-35236952D02*
X1766000Y-35141714D01*
X1766000Y-35141714D02*
X1718380Y-35094095D01*
X1718380Y-35094095D02*
X1623142Y-35046476D01*
X1623142Y-35046476D02*
X813619Y-35046476D01*
X1766000Y-34617904D02*
X1813619Y-34475047D01*
X1813619Y-34475047D02*
X1813619Y-34236952D01*
X1813619Y-34236952D02*
X1766000Y-34141714D01*
X1766000Y-34141714D02*
X1718380Y-34094095D01*
X1718380Y-34094095D02*
X1623142Y-34046476D01*
X1623142Y-34046476D02*
X1527904Y-34046476D01*
X1527904Y-34046476D02*
X1432666Y-34094095D01*
X1432666Y-34094095D02*
X1385047Y-34141714D01*
X1385047Y-34141714D02*
X1337428Y-34236952D01*
X1337428Y-34236952D02*
X1289809Y-34427428D01*
X1289809Y-34427428D02*
X1242190Y-34522666D01*
X1242190Y-34522666D02*
X1194571Y-34570285D01*
X1194571Y-34570285D02*
X1099333Y-34617904D01*
X1099333Y-34617904D02*
X1004095Y-34617904D01*
X1004095Y-34617904D02*
X908857Y-34570285D01*
X908857Y-34570285D02*
X861238Y-34522666D01*
X861238Y-34522666D02*
X813619Y-34427428D01*
X813619Y-34427428D02*
X813619Y-34189333D01*
X813619Y-34189333D02*
X861238Y-34046476D01*
X1289809Y-33284571D02*
X1337428Y-33141714D01*
X1337428Y-33141714D02*
X1385047Y-33094095D01*
X1385047Y-33094095D02*
X1480285Y-33046476D01*
X1480285Y-33046476D02*
X1623142Y-33046476D01*
X1623142Y-33046476D02*
X1718380Y-33094095D01*
X1718380Y-33094095D02*
X1766000Y-33141714D01*
X1766000Y-33141714D02*
X1813619Y-33236952D01*
X1813619Y-33236952D02*
X1813619Y-33617904D01*
X1813619Y-33617904D02*
X813619Y-33617904D01*
X813619Y-33617904D02*
X813619Y-33284571D01*
X813619Y-33284571D02*
X861238Y-33189333D01*
X861238Y-33189333D02*
X908857Y-33141714D01*
X908857Y-33141714D02*
X1004095Y-33094095D01*
X1004095Y-33094095D02*
X1099333Y-33094095D01*
X1099333Y-33094095D02*
X1194571Y-33141714D01*
X1194571Y-33141714D02*
X1242190Y-33189333D01*
X1242190Y-33189333D02*
X1289809Y-33284571D01*
X1289809Y-33284571D02*
X1289809Y-33617904D01*
D13*
%TO.C,J4*%
X29600781Y-9800000D02*
G75*
G03*
X29600781Y-9800000I-1600781J0D01*
G01*
%TO.C,J5*%
X29500833Y-14200000D02*
G75*
G03*
X29500833Y-14200000I-1500833J0D01*
G01*
%TO.C,J3*%
X9500833Y-14200000D02*
G75*
G03*
X9500833Y-14200000I-1500833J0D01*
G01*
%TO.C,J2*%
X9600781Y-9800000D02*
G75*
G03*
X9600781Y-9800000I-1600781J0D01*
G01*
%TO.C,J1*%
X32000000Y-21910000D02*
X30670000Y-21910000D01*
X30670000Y-21910000D02*
X30670000Y-20580000D01*
X33330000Y-19310000D02*
X33330000Y-11630000D01*
X33330000Y-19310000D02*
X30670000Y-19310000D01*
X30670000Y-19310000D02*
X30670000Y-11630000D01*
X33330000Y-11630000D02*
X30670000Y-11630000D01*
%TO.C,SW1*%
X35050000Y-12700000D02*
X35650000Y-12700000D01*
X35350000Y-13000000D02*
X35050000Y-12700000D01*
X35650000Y-12700000D02*
X35350000Y-13000000D01*
X36750000Y-10900000D02*
X36750000Y-22700000D01*
X40850000Y-10900000D02*
X36750000Y-10900000D01*
X40850000Y-22700000D02*
X36750000Y-22700000D01*
X42350000Y-16800000D02*
X43350000Y-16800000D01*
X42850000Y-16300000D02*
X42850000Y-17300000D01*
X44850000Y-10900000D02*
X48950000Y-10900000D01*
X48950000Y-10900000D02*
X48950000Y-13300000D01*
X48950000Y-15500000D02*
X48950000Y-18100000D01*
X48950000Y-20300000D02*
X48950000Y-22700000D01*
X48950000Y-22700000D02*
X44850000Y-22700000D01*
X45850000Y-16800000D02*
G75*
G03*
X45850000Y-16800000I-3000000J0D01*
G01*
%TO.C,U6*%
X-173000Y-24244000D02*
X-173000Y-45024000D01*
X-173000Y-45024000D02*
X51135000Y-45000000D01*
X51135000Y-24220001D02*
X-173000Y-24244000D01*
X51135000Y-45000000D02*
X51135000Y-24220001D01*
%TD*%
M02*
